
<svg xmlns="http://www.w3.org/2000/svg" version="1.1" xmlns:xlink="http://www.w3.org/1999/xlink" preserveAspectRatio="none" x="0px" y="0px" width="240px" height="240px" viewBox="0 0 240 240">
<defs>
<g id="Layer0_0_FILL">
<path fill="#757575" stroke="none" d="
M 240 120
Q 240 70.3 204.8 35.15 169.7 0 120 0 70.3 0 35.15 35.15 0 70.3 0 120 0 169.7 35.15 204.8 59.8 229.5 91.65 236.85 105.15 240 120 240 134.85 240 148.35 236.85 180.2 229.5 204.8 204.8 240 169.7 240 120
M 164.75 48.15
Q 176.25 56.65 164.75 66.25
L 127.25 66.25 127.25 82.85
Q 142.5 82.6 154.2 90.35 179.5 106.5 181.85 135.15
L 181.85 155.3
Q 171.55 165.2 164.3 155.2
L 164.3 136.35
Q 161.25 118.75 153.35 112.2 145.5 105.65 144.85 105.6 144.2 105.55 139.15 102.95 134 100.3 127.95 99.85
L 127.95 186.5
Q 119.35 202.3 109.15 186.9
L 109.15 100.2
Q 93.6 101.95 85.9 111.25 76.35 120.85 74.5 132.5 72.45 143.8 73 155.7 63.8 167.05 55.85 153.5 53.1 139.7 56.8 124.75 62.15 108.8 74.85 97.55 90.15 83.5 109.15 83.25
L 109.15 66.95 72.45 66.95
Q 58.8 57.55 71.55 48.15
L 164.75 48.15 Z"/>
</g>
</defs>

<g transform="matrix( 1, 0, 0, 1, 0,0) ">
<use xlink:href="#Layer0_0_FILL"/>
</g>
</svg>
