
<svg xmlns="http://www.w3.org/2000/svg" version="1.1" xmlns:xlink="http://www.w3.org/1999/xlink" preserveAspectRatio="none" x="0px" y="0px" width="240px" height="240px" viewBox="0 0 240 240">
<defs>
<g id="Layer0_0_FILL">
<path fill="#757575" stroke="none" d="
M 230 49.25
Q 229.75 37.35 221.2 28.8 212.7 20.3 200.8 20
L 34.85 20 34.85 20.4
Q 25.72578125 21.9146484375 18.8 28.8 10.3 37.35 10 49.25
L 10 190.8
Q 10.3 202.7 18.8 211.2 25.72578125 218.12578125 34.85 219.6
L 34.85 220 200.8 220
Q 212.7 219.75 221.2 211.2 229.6 202.85 230 191.2 230 191 230 190.8
L 230 49.25
M 207.05 42.95
Q 209.9 45.8 210 49.75
L 210 190.25
Q 209.9 194.25 207.05 197.1 204.25 199.9 200.25 200
L 39.75 200
Q 35.75 199.9 32.95 197.1 30.1 194.25 30 190.25
L 30 49.75
Q 30.1 45.8 32.95 42.95 35.75 40.1 39.75 40
L 200.25 40
Q 204.25 40.1 207.05 42.95
M 182.1 144.9
Q 179.25 142.1 175.25 142
L 84.75 142
Q 80.75 142.1 77.95 144.9 75 147.85 75 152 75 156.1 77.95 159.05 80.75 161.9 84.75 162
L 175.25 162
Q 179.25 161.9 182.1 159.05 185 156.1 185 152 185 147.85 182.1 144.9
M 165 88
Q 165 83.85 162.1 80.9 159.25 78.1 155.25 78
L 64.75 78
Q 60.75 78.1 57.95 80.9 55 83.85 55 88 55 92.1 57.95 95.05 60.75 97.9 64.75 98
L 155.25 98
Q 159.25 97.9 162.1 95.05 165 92.1 165 88 Z"/>
</g>
</defs>

<g transform="matrix( 1, 0, 0, 1, 0,0) ">
<use xlink:href="#Layer0_0_FILL"/>
</g>
</svg>
