
<svg xmlns="http://www.w3.org/2000/svg" version="1.1" xmlns:xlink="http://www.w3.org/1999/xlink" preserveAspectRatio="none" x="0px" y="0px" width="240px" height="240px" viewBox="0 0 240 240">
<defs>
<g id="Layer0_0_FILL">
<path fill="#757575" stroke="none" d="
M 239.85 90.75
Q 237.75 78.4 206.6 74.9 172.1 71.6 166.3 65.2 152 50.15 145.7 33 133.7 0.35 120 0 106.35 -0.05 97.1 25.7 87.8 51.45 77.05 62.25 71.65 71.2 40.05 74.25 4.2 76.65 0.5 90.75 -3.55 101.95 24.8 126.8 39.65 137.95 47.45 152.6 50.25 164.8 45 193.45 37.2 227.6 45.75 236 56.9 247.05 83.4 227.5 110.1 211.1 120.6 213.1 134.8 211.75 154.25 225.45 183.45 245.75 194.15 236.7 204.8 227.65 195.85 192.85 188.75 172.5 193 152.6 197.95 143.55 219.95 123.35 241.85 103.1 239.85 90.75 Z"/>
</g>
</defs>

<g transform="matrix( 1, 0, 0, 1, 0,0) ">
<use xlink:href="#Layer0_0_FILL"/>
</g>
</svg>
